<?xml version="1.0" encoding="UTF-8" standalone="no"?>
<!-- Created with Inkscape (http://www.inkscape.org/) -->

<svg
   width="186.8058mm"
   height="181.84535mm"
   viewBox="0 0 186.8058 181.84535"
   version="1.1"
   id="svg1"
   xml:space="preserve"
   xmlns:xlink="http://www.w3.org/1999/xlink"
   xmlns="http://www.w3.org/2000/svg"
   xmlns:svg="http://www.w3.org/2000/svg"><defs
     id="defs1" /><g
     id="layer4"
     style="display:inline"
     transform="translate(-18.833873,-52.353362)"><path
       style="fill:current-color;fill-opacity:1;stroke:current-color;stroke-linecap:round;stroke-opacity:1;paint-order:fill markers stroke"
       d="m 95.669135,53.179854 c -3.721292,0.311249 -4.394241,0.406923 -6.616051,1.044113 -2.630378,0.754363 -4.559572,1.287243 -7.100918,2.466317 -2.295797,1.06515 -3.937731,1.953484 -5.923503,3.287281 -2.02232,1.358344 -5.190256,3.472863 -6.66985,5.16471 -2.185306,2.498792 -4.508881,5.553463 -6.262978,8.56142 -1.775727,3.045051 -3.151403,5.966941 -4.442842,9.130839 -1.258168,3.082388 -2.200426,7.861642 -2.632167,11.258748 -0.484499,3.812231 -0.452921,8.406988 -0.03366,12.291488 0.398422,3.69137 2.189107,8.84117 3.50581,12.30921 1.242519,3.27264 3.920655,7.12355 5.640705,9.94324 1.506804,2.47011 3.494504,4.95647 5.007295,7.19075 1.918383,2.83331 3.868663,4.76493 5.533268,7.60722 1.184223,2.02204 2.506616,3.24118 3.288676,5.28488 0.885796,2.31479 1.847689,3.40948 2.426442,5.82485 0.332383,1.38717 0.488247,1.51004 0.517787,3.0576 0.01802,0.94416 0.13655,1.3069 -0.333339,3.25561 -0.02727,0.11309 -0.224901,0.66891 -0.4636,1.11931 -0.22134,0.41764 -0.461383,0.91374 -0.461383,0.91374 -0.209701,0.63297 -0.182344,0.56822 0.0039,1.10673 0.519278,0.59727 1.161421,0.36791 1.758393,-0.15171 0,0 0.669522,-0.56667 1.073508,-0.96426 0.403987,-0.39759 0.744235,-1.0179 1.111587,-1.62656 0.662358,-1.09748 0.63904,-1.39101 0.85032,-2.44725 0.336033,-1.67994 0.378231,-2.53658 0.431382,-4.39635 0.078,-2.72909 -0.289948,-5.42771 -0.789822,-7.73828 -0.510003,-2.35739 -1.487773,-5.1753 -2.673296,-7.19956 -1.760751,-3.00645 -3.240502,-5.47112 -4.962488,-8.35201 -1.392231,-2.32921 -2.8937,-4.68987 -4.112619,-7.04629 -1.467462,-2.8369 -2.810039,-6.31093 -3.91939,-9.23283 -1.23013,-3.24001 -1.689045,-5.3919 -1.989251,-8.97127 -0.298113,-3.55441 -0.467498,-7.034333 -0.0034,-10.686122 0.401413,-3.15847 0.386844,-4.255224 1.137156,-7.449576 0.759824,-3.234852 1.906508,-6.590785 3.263098,-9.514406 1.320114,-2.84501 2.573949,-5.091936 4.745614,-7.575132 1.423339,-1.627521 2.57514,-3.341931 4.184899,-4.686847 1.73206,-1.447095 3.727248,-3.158461 5.661457,-4.209143 2.238385,-1.215913 3.721928,-2.047734 6.09311,-2.8903 2.072503,-0.736435 3.744175,-1.286627 5.852707,-1.507649 2.063868,-0.21634 4.006468,-0.284623 5.938478,-0.272135 2.05811,0.0133 4.17994,0.377785 6.28271,0.919274 2.34134,0.602923 3.81863,1.370633 6.01694,2.246745 1.31699,0.524868 2.48706,1.308057 3.66619,2.014158 1.58375,0.948406 3.1949,2.319743 4.5721,3.527666 1.81273,1.589922 2.92714,2.879332 4.50358,4.792649 1.56268,1.896604 3.09261,4.173836 4.34635,6.256181 1.17409,1.950055 2.21364,4.025572 3.07522,6.138234 1.24448,3.051599 2.55664,6.724838 3.35671,9.948121 0.70285,2.83155 1.20054,5.240755 1.60729,8.210152 0.32932,2.40414 0.70576,4.73701 0.74792,7.0528 0.0453,2.48886 0.0634,4.15171 -0.0517,6.83957 -0.11733,2.74061 -0.54673,4.8302 -0.81801,7.33102 -0.32773,3.02124 -1.02303,6.1269 -1.60631,9.29466 -0.30905,1.6784 -1.66523,4.69564 -2.62431,7.36612 -0.47954,1.33524 -0.86425,2.61181 -0.75586,3.92969 0.0542,0.65894 0.26427,1.36037 0.73632,1.93945 0.47206,0.57908 1.16886,0.96843 1.91993,1.14844 0.4349,0.10423 0.83938,0.18062 1.36132,0.0859 0.52195,-0.0947 1.15144,-0.54953 1.39258,-1.03125 0.48229,-0.96342 0.16258,-1.50175 0.23438,-2.16797 0.13961,-1.29533 0.41856,-2.82887 1.47214,-5.42118 0.76044,-1.87108 1.56089,-3.65693 2.242,-5.202 0.70653,-1.60274 1.52697,-2.82251 2.29567,-4.36896 0.80436,-1.61824 1.69826,-2.91253 2.57956,-4.17246 1.06415,-1.52134 2.04477,-2.75999 3.51187,-4.32939 1.35929,-1.4541 2.60908,-2.81152 3.98148,-4.02754 1.19321,-1.05724 2.83064,-2.33203 4.12605,-3.1263 1.459,-0.89459 2.72781,-1.76282 4.40311,-2.43523 1.39677,-0.56061 2.6736,-1.15135 4.22582,-1.62354 1.28663,-0.39139 2.28941,-0.6199 3.6453,-0.81634 1.44751,-0.20972 1.05908,-0.087 2.39261,-0.2776 2.46837,-0.35272 1.12441,-0.10954 1.40802,-0.0807 l 1.15668,0.0293 c 1.41226,0.14335 1.55402,0.29638 2.68517,0.52216 1.31919,0.26332 2.40515,0.76608 3.61178,1.27413 0.9919,0.41764 1.96443,1.10464 3.06452,1.76455 1.12429,0.67444 1.95387,1.45384 2.7456,2.12745 0.92023,0.78294 1.14851,1.23648 2.01206,2.32645 1.05813,1.33558 1.85248,2.3158 2.47607,3.61777 0.63724,1.33046 1.26072,2.68967 1.63318,4.36966 0.46446,2.09493 0.49405,4.0089 0.46385,5.89276 -0.0335,2.09143 0.14644,4.0311 -0.49562,6.17334 -0.88051,2.9379 -1.16162,4.74654 -2.66909,7.42811 -1.45026,2.57983 -3.03532,5.4598 -4.98313,7.88858 -1.39357,1.73767 -3.09801,3.86944 -4.67237,5.43257 -1.54843,1.53738 -2.39786,3.70421 -4.11307,5.04822 -1.64189,1.28654 -3.39692,2.46548 -5.19922,3.59961 -1.44891,0.91175 -2.97742,1.74477 -4.53321,2.58007 -1.89184,1.01574 -3.78792,1.99729 -5.71093,2.88477 -1.7281,0.79752 -3.54492,1.49915 -5.38282,2.25781 -1.27886,0.5279 -2.48242,1.07672 -3.66796,1.49024 -1.3806,0.48155 -2.81074,0.88256 -4.26563,1.25195 -1.46639,0.37231 -2.99404,0.65661 -4.55469,0.97852 -1.49001,0.30733 -2.94883,0.62637 -4.39062,0.86718 -1.38008,0.23051 -3.11046,0.53369 -4.52613,0.69846 -1.40457,0.16348 -2.45458,0.34162 -3.85234,0.44084 -1.22704,0.0871 -2.3701,0.0817 -3.75926,0.23033 -1.47124,0.0536 -2.2483,0.0701 -3.66114,0.0129 l -1.62439,-0.0657 c -1.71607,-0.0694 -2.18192,0.0247 -3.92321,-0.0696 -1.52503,-0.0826 -0.31599,-0.014 -1.93859,-0.0573 -0.85288,-0.0227 -0.75328,-0.0568 -1.69007,-0.0853 -0.0733,-0.56443 -0.43832,-1.93897 -0.7438,-2.84014 -0.82173,-3.6437 -1.67487,-7.20734 -2.31787,-10.93732 -0.78969,-4.58092 -1.3731,-8.84141 -1.72843,-14.02021 -0.25554,-3.72442 -0.64202,-6.84859 -0.66224,-11.83381 -0.0258,-6.35171 0.22623,-12.41166 0.25209,-18.80542 0.24408,-8.13299 0.39521,-11.44009 0.91445,-19.56533 0.0237,-0.371685 -0.32312,-5.168948 -0.2392,-5.911525 0.0419,-0.371288 -0.53063,-1.797615 -0.52093,-2.080766 0.002,-0.07079 -0.49721,-1.637308 -0.59564,-1.836246 -0.0839,-0.148794 -0.60752,-0.810014 -0.94197,-1.093501 -0.14635,-0.124052 -0.88128,-0.35228 -1.02797,-0.368171 -0.0994,-0.01077 -0.87504,-0.05225 -0.71467,-0.05761 0.15563,-0.0052 -0.33114,-0.0085 -0.48588,0.01046 -0.19406,0.02384 -0.31512,0.04884 -0.52211,0.10616 -0.19047,0.05274 -0.32368,0.07858 -0.57961,0.249653 -0.24651,0.335084 -0.35902,0.424719 -0.41296,0.508367 -0.0927,0.14374 -0.24862,0.317699 -0.26502,0.36442 -0.0914,0.08613 -0.2912,0.511818 -0.3123,0.590669 -4.00023,15.00702 -2.57692,19.58681 -4.42809,29.32628 -1.01633,5.34719 -2.15807,10.66415 -3.41829,15.94474 -1.747053,7.32054 -3.876137,14.57753 -5.779779,21.95703 -1.654457,6.41353 -3.6524,12.62031 -5.355739,18.92806 0.07742,0.0372 -0.100901,0.63591 -0.253995,0.64151 -1.754538,0.064 -3.16087,0.11624 -4.960699,0.19822 -1.680138,0.0765 -3.06796,0.2334 -4.771186,0.36995 -1.741104,0.13958 -3.520687,0.29028 -5.248926,0.50202 -1.392936,0.17065 -3.179949,0.37754 -4.547924,0.5918 -1.733613,0.27153 -2.933572,0.45289 -4.653507,0.76588 -1.800746,0.3277 -3.648584,0.61644 -5.507812,1.0518 -1.979134,0.46343 -4.043414,0.9259 -5.947952,1.49924 -2.054254,0.6184 -3.984173,1.1669 -6.026657,1.91136 -1.395874,0.50878 -2.85938,1.05845 -4.116801,1.54404 -1.653109,0.63841 -3.321678,1.42482 -5.235965,2.39962 -2.004233,1.02061 -4.635388,2.43161 -6.324363,3.78295 -1.874977,1.50015 -3.471438,2.81899 -5.058917,4.6121 -1.525391,1.72298 -2.870502,3.37758 -4.038634,5.58342 -1.027341,1.93998 -1.729671,3.94475 -2.166896,6.01777 -0.501211,2.3764 -0.926942,5.14885 -0.578869,7.79847 0.335709,2.55549 1.105607,5.33617 2.264244,7.46027 1.014586,1.86002 2.21537,3.24549 3.70394,4.67335 1.344413,1.28958 2.79043,2.08823 4.493732,3.06706 1.42556,0.81922 2.41607,1.01553 4.045336,1.51994 1.459267,0.45178 2.671929,0.67833 5.70482,1.02206 1.610408,0.11337 4.531324,0.14979 5.9709,-0.012 2.748388,-0.3088 3.850663,-0.30799 6.720998,-1.03225 3.136309,-0.79138 6.418533,-1.95543 9.232459,-3.68887 3.332747,-2.05304 6.44744,-4.45323 9.115468,-7.02993 2.212008,-2.13629 4.212642,-4.69984 6.0707,-7.26304 2.654011,-3.66122 4.649265,-7.58204 6.804365,-11.3607 1.943475,-3.40761 3.278566,-7.13943 4.594922,-10.86976 1.486841,-4.21345 2.746944,-8.44447 3.932491,-12.64829 0.07456,-9.9e-4 0.2122,-0.51478 0.285927,-0.51478 1.382557,0.10268 2.913118,0.0604 4.318294,0.0861 2.911678,0.0957 5.607065,0.0663 8.588005,0.20916 2.23425,0.10705 1.03767,-0.0192 3.2031,0.18403 0.11497,0.006 0.64154,2.00571 0.75698,2.01251 1.55311,5.20575 3.00826,9.21064 5.0603,14.2864 2.39982,5.93598 5.90889,12.40447 9.46593,17.87866 2.51383,3.86872 5.69577,7.77664 9.05366,10.98678 2.29559,2.19459 6.09791,4.82156 8.84927,6.04396 1.62986,0.72413 4.20582,1.92656 6.10578,2.15528 1.84848,0.22251 4.08416,0.1333 4.08416,0.1333 0.35643,-0.13302 1.85832,-0.202 2.44953,-0.82716 -0.50509,-0.70859 -1.05068,-0.90856 -1.98665,-1.10595 0,0 -1.89106,-0.60447 -2.92611,-1.08202 -1.04001,-0.47985 -2.095,-1.29467 -3.46843,-2.21241 -2.51414,-1.67997 -4.26843,-3.86635 -6.36721,-6.19922 -2.97274,-3.30433 -5.11683,-6.70651 -7.5153,-10.6582 -3.22312,-5.31041 -5.50484,-11.0512 -7.98305,-16.95327 -1.89808,-4.52045 -2.8163,-7.61187 -4.26647,-12.3829 -0.2105,-0.75699 -0.27003,-0.73618 -0.39009,-1.41908 1.60426,-0.0245 1.52617,-0.0251 3.12508,-0.0723 1.96071,-0.058 3.13423,-0.13153 4.91939,-0.1 1.4953,0.0264 2.90262,0.0746 4.3537,0.0217 1.26226,-0.0459 2.45916,-0.10712 3.76191,-0.19965 1.4534,-0.10316 2.3201,-0.35135 3.75469,-0.51833 1.43691,-0.16724 2.35919,-0.29267 3.81171,-0.53529 1.53632,-0.2566 4.09508,-0.44052 5.53385,-0.85748 1.53865,-0.4459 3.08065,-0.65815 4.66702,-1.06092 1.49781,-0.38029 3.01537,-0.65435 4.51122,-1.17611 1.35672,-0.47322 2.73072,-0.75511 3.94064,-1.25455 1.79537,-0.7411 3.27137,-1.09705 5.11217,-1.94659 2.00203,-0.92394 4.32115,-1.88797 6.23794,-2.9171 1.56632,-0.84095 3.24052,-1.69876 4.79083,-2.67433 1.84886,-1.16343 3.65844,-2.2107 5.41217,-3.58487 1.80587,-1.41504 3.90834,-2.69184 5.53431,-4.30621 1.65748,-1.64565 3.40394,-3.33657 4.99485,-4.97479 2.31579,-2.38467 4.06835,-5.24534 5.81151,-8.01255 1.78278,-2.83007 3.12551,-5.67383 4.06986,-8.82474 0.67707,-2.25907 1.32013,-5.41456 1.36019,-7.91729 0.038,-2.371 -0.27826,-4.93769 -0.73489,-6.99728 -0.36691,-1.65497 -1.06618,-3.45379 -1.90453,-5.20413 -0.82884,-1.73051 -2.25181,-3.51661 -3.28168,-4.81651 -0.86718,-1.09456 -2.35491,-2.19001 -3.55736,-3.21308 -1.11858,-0.9517 -2.64267,-1.53857 -3.66921,-2.15437 -1.0393,-0.62345 -2.00152,-0.92994 -3.42585,-1.40734 -1.45946,-0.48917 -3.05378,-0.90132 -4.52796,-1.19557 -1.48172,-0.29576 -1.35273,-0.26013 -2.59125,-0.38584 -0.10609,-0.0108 -1.89519,-0.21136 -2.27392,-0.21256 -1.60379,-0.005 -2.93299,-0.0778 -4.62493,0.10422 -1.44225,0.15515 -2.96604,0.1714 -4.39435,0.54267 -1.57478,0.40935 -3.40534,0.63977 -4.93691,1.25449 -1.73828,0.69769 -3.80111,1.62392 -5.47787,2.65202 -1.50244,0.92121 -3.24865,1.82162 -4.51183,2.94086 -1.55706,1.37964 -2.93439,2.38602 -4.24792,3.79116 -1.36005,1.4549 -2.88283,3.1382 -4.1916,5.00925 -1.11752,1.59764 -2.06509,3.54671 -2.81292,5.05121 -0.6944,1.39698 -1.00536,2.77885 -0.60845,5.22532 0.52259,-2.42752 3.60474,-8.71901 3.75405,-11.31658 0.14681,-2.55415 0.046,-1.94631 0.2646,-4.49305 0.2275,-2.65086 0.15841,-4.50224 0.10921,-7.20574 -0.0462,-2.53905 0.0387,-5.11371 -0.29098,-7.520287 -0.40986,-2.992088 -0.83145,-6.101803 -1.57819,-9.110189 -0.82719,-3.332509 -1.70971,-5.995672 -3.01595,-9.198687 -0.91562,-2.245194 -2.3532,-5.162616 -3.60665,-7.244479 -1.34041,-2.226292 -2.78469,-4.413344 -4.42011,-6.398244 -1.63192,-1.980641 -3.80092,-3.957017 -5.78135,-5.694027 -1.51826,-1.331645 -3.45564,-2.409346 -5.1761,-3.439618 -1.34835,-0.807437 -3.19408,-1.754834 -4.61377,-2.320634 -2.35915,-0.94021 -4.13895,-1.61547 -6.54867,-2.236004 -2.1314,-0.54886 -4.25609,-0.941308 -6.55795,-1.179525 -2.26305,-0.234201 -5.35246,-0.239419 -7.669083,0.0034 z m 11.877745,59.521316 c -0.0614,1.63001 -0.94548,3.02229 -0.99442,4.65286 -0.19225,6.40637 -3.31608,10.9231 -3.27767,17.33333 0.0289,4.82528 -0.0107,11.7847 0.33284,16.67755 0.33264,4.73303 1.09827,9.37495 1.861,14.15511 0.59845,3.75057 1.11566,7.02682 2.18368,10.76522 0.02,0.0699 0.21065,1.11772 0.23075,1.18765 -2.14067,0.0439 -1.22291,0.0714 -3.2531,0.0408 -3.01815,-0.0454 -5.285359,-0.15463 -8.25747,-0.23412 -1.22573,-0.0328 -1.967523,0.002 -3.315541,-0.0229 1.625367,-6.12403 3.2288,-12.599 4.791352,-18.65626 1.884258,-7.30436 3.468649,-14.10259 5.241779,-21.53239 1.27378,-5.33739 2.41527,-11.33744 3.43726,-16.71443 0.55883,-2.94016 0.74314,-5.21989 1.01954,-7.65235 z m -19.549116,66.55327 c -1.100149,3.90144 -2.25375,7.69982 -3.690643,11.39558 -1.372217,3.52941 -2.898834,7.12114 -4.67735,10.5365 -2.023461,3.88574 -4.098683,7.53693 -6.569045,10.94481 -1.705864,2.35325 -3.497051,4.78743 -5.521381,6.89874 -2.565278,2.67551 -5.017541,4.94613 -7.998693,6.78259 -2.537015,1.56286 -4.8753,3.20105 -7.798982,4.07022 -2.488096,0.73967 -5.248804,1.78703 -8.017923,1.87792 -1.119604,0.0367 -2.476497,0.0332 -3.729043,0.0208 -1.293329,-0.0128 -3.207682,-0.23044 -4.392733,-0.59732 -1.40287,-0.43433 -2.956617,-0.87145 -4.172931,-1.65049 -1.371686,-0.87854 -2.873025,-1.94881 -4.063881,-3.20443 -1.285222,-1.35511 -2.454653,-3.00183 -3.146449,-4.5731 -0.856463,-1.94528 -1.1392,-3.86063 -1.503439,-5.88611 -0.361047,-2.00773 -0.165464,-4.79886 0.317932,-7.09082 0.397141,-1.88298 0.986797,-3.72054 1.851563,-5.35352 0.969679,-1.83109 2.236975,-3.62183 3.739612,-5.31911 1.482585,-1.67462 3.268956,-3.12938 5.010388,-4.52269 1.602969,-1.28252 2.974291,-1.96769 4.666791,-2.96959 1.580021,-0.93531 3.331072,-1.96359 5.24414,-2.70239 1.369024,-0.52869 2.920906,-1.18801 4.170284,-1.64339 1.96432,-0.71598 3.928717,-1.36463 5.958106,-1.97555 1.88929,-0.56874 3.705589,-0.99984 5.584113,-1.43971 1.735608,-0.40641 3.681677,-0.84995 5.513349,-1.18327 1.70324,-0.30995 3.392842,-0.69192 5.096712,-0.95879 1.354875,-0.21221 2.775346,-0.39903 4.118002,-0.56352 1.693985,-0.20754 3.329839,-0.36897 5.025521,-0.50491 1.643665,-0.13177 3.436046,-0.24205 5.11006,-0.31829 1.61171,-0.0734 2.224252,-0.0143 3.87592,-0.0701 z"
       id="path6" /></g></svg>
