<?xml version="1.0" encoding="utf-8"?><!-- Uploaded to: SVG Repo, www.svgrepo.com, Generator: SVG Repo Mixer Tools -->
<svg width="800px" height="800px" viewBox="0 0 400 400" fill="none" xmlns="http://www.w3.org/2000/svg">
<path d="M121.218 223.295C156.88 211.924 193.524 215.203 226.404 221.651C247.961 225.878 266.244 235.719 287.359 228.824C330.048 214.884 304.977 169.685 272.822 161.571C254.592 156.971 246.137 167.557 231.332 171.292C229.725 171.697 199.761 110.281 144.641 147.365C103.681 174.922 109.076 274.793 109.076 317.115" stroke="currentColor" stroke-opacity="0.9" stroke-width="16" stroke-linecap="round" stroke-linejoin="round"/>
<path d="M123.94 228.47C121.73 258.216 131.572 288.088 131.572 317.115" stroke="currentColor" stroke-opacity="0.9" stroke-width="16" stroke-linecap="round" stroke-linejoin="round"/>
<path d="M219.262 226.197C218.953 256.36 220.821 287.085 219.72 317.115" stroke="currentColor" stroke-opacity="0.9" stroke-width="16" stroke-linecap="round" stroke-linejoin="round"/>
<path d="M238.402 231.879C240.715 260.52 244.805 288.191 246.357 317.116" stroke="currentColor" stroke-opacity="0.9" stroke-width="16" stroke-linecap="round" stroke-linejoin="round"/>
<path d="M111.116 210.286C100.445 168.502 95.6086 125.35 89.5225 83" stroke="currentColor" stroke-opacity="0.9" stroke-width="16" stroke-linecap="round" stroke-linejoin="round"/>
<path d="M269.818 156.361C270.037 154.706 268.068 140.442 269.818 142.256C278.117 150.859 271.042 161.171 282.792 151.022C283.649 150.282 286.349 146.393 287.304 146.639C289.833 147.296 291.013 163.979 291.816 167.1" stroke="currentColor" stroke-opacity="0.9" stroke-width="16" stroke-linecap="round" stroke-linejoin="round"/>
</svg>